<?xml version="1.0" standalone="no"?>
<!DOCTYPE svg PUBLIC "-//W3C//DTD SVG 20010904//EN"
 "http://www.w3.org/TR/2001/REC-SVG-20010904/DTD/svg10.dtd">
<svg version="1.0" xmlns="http://www.w3.org/2000/svg"
 width="400.000000pt" height="390.000000pt" viewBox="0 0 400.000000 390.000000"
 preserveAspectRatio="xMidYMid meet">

<g transform="translate(0.000000,390.000000) scale(0.100000,-0.100000)"
fill="#000000" stroke="none">
<path d="M1955 3799 c-85 -131 -201 -229 -310 -261 -16 -4 -86 -17 -155 -28
-135 -20 -191 -37 -256 -75 -55 -32 -135 -121 -184 -205 -37 -63 -42 -68 -82
-74 -71 -11 -193 -55 -242 -87 -69 -46 -120 -110 -180 -228 -109 -213 -187
-286 -391 -362 -60 -23 -112 -43 -113 -44 -2 -2 19 -34 48 -70 94 -124 140
-242 140 -361 0 -35 -10 -123 -22 -196 -18 -112 -19 -143 -10 -197 14 -85 58
-172 132 -259 l60 -72 -6 -112 c-11 -197 18 -270 175 -433 178 -185 211 -256
219 -477 2 -76 6 -138 7 -138 2 0 50 16 107 34 207 70 311 59 540 -53 139 -68
207 -93 258 -94 46 -1 165 31 235 62 37 17 72 31 76 31 5 0 32 -11 61 -24 58
-26 124 -47 206 -67 47 -12 58 -11 120 10 37 12 110 44 162 70 169 85 208 96
345 95 102 -1 133 -5 205 -28 132 -42 120 -52 124 104 5 218 36 286 219 472
158 161 200 267 178 457 l-9 84 62 75 c121 142 149 237 127 419 -21 170 -24
274 -12 335 16 76 68 180 130 261 29 38 51 70 49 71 -1 2 -37 13 -78 25 -208
62 -306 142 -405 331 -131 249 -190 300 -420 360 l-69 18 -41 66 c-54 89 -119
162 -174 198 -47 30 -145 63 -216 73 -185 26 -229 39 -310 90 -65 42 -135 112
-192 194 -26 36 -50 70 -54 74 -4 5 -28 -24 -54 -64z m163 -157 c48 -59 141
-126 210 -152 31 -12 110 -31 174 -41 65 -10 135 -25 157 -33 103 -35 192
-116 261 -237 l35 -61 92 -24 c117 -29 202 -74 257 -136 24 -26 74 -107 112
-180 52 -100 82 -146 125 -189 64 -64 163 -117 269 -145 36 -9 71 -18 78 -20
9 -3 -2 -23 -32 -62 -57 -75 -110 -173 -130 -241 -20 -69 -20 -191 -1 -301 36
-202 9 -298 -127 -461 l-53 -64 9 -75 c12 -94 -2 -197 -37 -272 -17 -39 -60
-93 -143 -180 -170 -177 -210 -271 -202 -475 2 -57 3 -103 1 -103 -1 0 -44 14
-95 31 -72 25 -116 33 -194 37 -124 6 -169 -6 -334 -88 -66 -32 -146 -64 -177
-71 -78 -16 -182 1 -289 47 l-83 35 -38 -19 c-52 -26 -158 -59 -213 -66 -81
-11 -157 10 -310 84 -80 38 -170 75 -200 81 -99 21 -241 -3 -391 -65 -15 -6
-17 9 -21 131 -4 118 -9 148 -31 206 -34 89 -51 111 -173 238 -73 77 -111 125
-135 175 -34 68 -34 69 -34 215 l-1 147 -38 42 c-56 62 -114 157 -131 214 -19
63 -19 158 0 266 22 124 20 243 -6 318 -20 59 -85 167 -145 239 -19 24 -23 34
-13 37 8 2 46 14 84 26 195 62 288 143 390 341 103 199 186 267 376 307 l80
18 35 62 c20 34 60 89 91 122 78 85 146 116 320 145 158 28 208 43 275 86 60
39 146 131 194 209 l37 60 40 -58 c22 -31 56 -76 75 -100z"/>
<path d="M1946 3656 c-31 -47 -80 -106 -109 -131 -90 -79 -131 -94 -382 -140
-155 -28 -261 -106 -338 -246 -22 -42 -39 -61 -57 -65 -248 -56 -312 -104
-420 -314 -101 -195 -192 -271 -396 -330 l-82 -23 55 -66 c30 -36 72 -102 94
-146 52 -104 60 -185 34 -343 -34 -215 -12 -313 101 -453 l62 -77 -5 -103 c-6
-116 10 -204 49 -268 12 -20 68 -84 124 -143 157 -164 200 -273 192 -478 -1
-50 -2 -90 0 -90 1 0 19 9 40 19 48 25 131 49 209 61 104 17 176 0 347 -82
136 -66 155 -72 226 -76 89 -5 157 8 247 49 l62 27 83 -33 c102 -42 190 -57
261 -45 66 11 90 20 209 81 182 92 295 101 489 36 l101 -34 -7 76 c-10 112 8
222 50 306 26 53 61 97 139 177 71 72 115 126 136 167 39 79 55 184 43 281
l-10 73 58 64 c86 97 122 175 127 276 2 49 -2 118 -12 172 -18 103 -20 190 -5
255 15 67 74 179 130 250 28 34 49 63 47 65 -2 1 -39 13 -83 24 -199 55 -285
127 -390 329 -52 101 -81 144 -122 183 -63 59 -152 103 -247 121 l-68 13 -38
66 c-95 162 -180 218 -383 255 -153 27 -177 33 -237 64 -60 31 -170 138 -221
216 -23 35 -43 64 -44 64 -2 0 -28 -38 -59 -84z m114 -483 c0 -153 -3 -163
-46 -163 l-34 0 0 109 c0 60 3 123 6 140 6 27 10 31 40 31 l34 0 0 -117z
m-152 90 c16 -13 24 -38 32 -96 14 -111 13 -135 -9 -146 -16 -9 -133 -32 -138
-27 -3 3 -33 231 -33 252 0 18 7 24 33 27 70 9 96 6 115 -10z m332 -3 c29 -15
33 -45 20 -138 -18 -125 -18 -126 -101 -120 -39 3 -73 8 -76 12 -6 5 11 174
24 240 6 28 7 28 61 22 30 -4 62 -11 72 -16z m-530 -52 c7 -24 22 -81 36 -128
13 -46 21 -87 16 -91 -4 -4 -18 -10 -32 -14 -22 -5 -29 -1 -48 34 -13 23 -25
41 -27 41 -2 0 3 -20 10 -44 12 -39 12 -45 -2 -50 -44 -17 -49 -10 -86 121
-37 134 -37 143 10 143 14 0 29 -12 43 -35 27 -43 31 -44 19 -3 -13 46 -11 56
9 61 36 10 42 6 52 -35z m673 23 l24 -9 -36 -131 -36 -131 -30 6 c-16 3 -33 9
-37 13 -12 10 63 261 78 261 7 0 24 -4 37 -9z m131 -42 c23 -11 24 -13 10 -48
l-15 -36 24 28 c19 23 29 27 50 21 43 -10 42 -23 -2 -68 -37 -38 -43 -50 -52
-111 -5 -37 -8 -69 -7 -71 2 -1 40 42 86 97 l82 99 43 -26 c23 -15 43 -28 45
-29 1 -1 -22 -58 -53 -125 -30 -68 -54 -125 -52 -127 2 -1 39 39 82 90 43 50
82 96 87 101 4 6 18 0 32 -14 20 -17 23 -27 16 -41 -6 -10 -15 -30 -20 -46
l-10 -28 27 33 c32 37 43 39 67 14 15 -18 12 -24 -65 -113 -44 -52 -85 -98
-90 -103 -5 -6 -18 -1 -33 13 l-25 24 19 38 c28 54 25 59 -11 16 l-31 -38 -38
35 c-21 19 -48 39 -59 46 -18 9 -19 14 -10 31 14 28 1 39 -17 14 -13 -17 -17
-18 -37 -5 -12 7 -43 24 -69 37 -46 22 -47 23 -38 55 12 42 6 47 -10 8 -7 -16
-16 -30 -21 -30 -15 0 -59 23 -59 31 0 21 107 239 117 239 7 0 23 -5 37 -11z
m-1016 -33 c9 -21 8 -26 -9 -38 -27 -18 -16 -50 15 -42 17 4 25 -1 34 -20 10
-22 8 -26 -8 -31 -23 -7 -25 -15 -7 -39 11 -15 17 -17 35 -7 20 10 23 9 32
-15 6 -15 9 -28 8 -29 -2 -2 -27 -15 -56 -29 l-52 -27 -55 117 c-30 64 -55
122 -55 129 0 10 76 51 101 54 3 1 11 -10 17 -23z m-156 -78 c22 -18 58 -79
58 -100 0 -9 -11 -25 -24 -36 l-24 -18 28 -47 29 -46 -32 -20 c-17 -11 -32
-19 -33 -18 -32 38 -143 232 -137 237 10 11 104 60 113 60 3 0 13 -6 22 -12z
m-53 -325 c3 -2 -7 -15 -21 -29 -22 -22 -29 -24 -48 -14 -28 15 -38 5 -17 -17
14 -17 13 -20 -8 -45 -13 -16 -26 -28 -28 -28 -7 0 -157 188 -164 206 -3 9 7
28 27 49 l33 34 111 -76 c61 -42 113 -78 115 -80z m764 107 l18 -50 49 0 c28
0 50 -3 50 -7 0 -5 -16 -19 -36 -32 -26 -18 -34 -30 -31 -45 3 -12 8 -36 12
-55 l8 -34 -39 27 c-48 32 -56 32 -101 1 -20 -13 -39 -23 -41 -20 -2 2 3 24
11 49 l16 45 -42 31 c-22 16 -39 30 -36 31 2 0 23 2 46 4 55 4 58 7 73 60 7
25 15 45 19 45 3 0 14 -22 24 -50z m1053 -140 c15 -22 25 -42 23 -43 -24 -17
-69 -57 -64 -57 3 0 20 7 36 16 17 8 37 13 44 10 17 -6 48 -64 40 -75 -3 -5
-50 -37 -106 -71 -55 -34 -98 -64 -97 -66 2 -1 59 10 128 27 68 16 127 26 130
22 4 -5 14 -27 23 -50 l16 -42 -118 -65 c-65 -36 -121 -66 -124 -66 -3 0 -10
15 -16 32 -10 29 -9 34 11 51 l23 19 -28 -5 c-24 -4 -30 0 -42 30 -8 19 -24
47 -35 63 -26 36 -26 37 11 55 17 9 29 19 26 21 -3 3 -18 -1 -35 -10 -22 -11
-32 -12 -41 -3 -19 19 -13 34 32 72 l42 36 -50 -31 -50 -30 -17 22 c-10 13
-16 27 -15 31 2 6 216 146 224 147 2 0 15 -18 29 -40z m-2116 15 c35 -18 37
-31 9 -64 -19 -23 -20 -23 -39 -6 -11 10 -23 16 -26 13 -2 -3 13 -20 36 -38
22 -17 37 -25 34 -17 -3 9 4 29 17 46 l22 30 59 -41 c32 -22 58 -45 58 -49 0
-5 -9 -18 -20 -29 -11 -11 -20 -26 -20 -34 0 -19 -39 -46 -66 -46 -33 0 -173
106 -180 137 -11 43 35 109 79 112 4 1 21 -6 37 -14z m430 -190 c10 -31 15
-35 48 -35 l37 -1 -28 -25 c-26 -22 -28 -27 -18 -56 15 -43 15 -42 -24 -18
l-35 22 -30 -22 c-32 -23 -36 -17 -20 24 8 21 5 28 -15 45 -33 25 -31 31 10
31 31 0 35 3 41 35 3 19 10 35 14 35 5 0 14 -16 20 -35z m1195 -5 c6 -26 11
-30 41 -30 39 0 43 -9 13 -28 -18 -11 -20 -19 -14 -54 l7 -41 -31 22 c-30 21
-33 22 -56 7 -36 -24 -46 -21 -35 10 14 36 13 39 -15 54 -35 19 -31 30 9 30
30 0 36 4 46 35 13 40 25 38 35 -5z m-462 8 c32 -6 60 -15 63 -20 3 -4 9 -6
14 -3 5 3 11 1 15 -5 3 -5 15 -10 26 -10 10 0 19 -4 19 -10 0 -5 5 -10 11 -10
16 0 97 -58 143 -104 57 -56 123 -150 130 -186 1 -3 4 -9 7 -15 29 -48 52
-267 35 -332 -9 -34 -15 -61 -20 -83 -14 -60 -95 -190 -154 -244 -47 -44 -119
-96 -132 -96 -13 0 -13 -13 1 -27 6 -6 11 -32 11 -57 0 -41 3 -48 28 -61 15
-8 48 -37 71 -64 37 -41 54 -52 107 -66 76 -21 88 -35 31 -35 l-42 0 21 -23
c28 -29 28 -41 1 -27 -31 17 -33 7 -9 -42 l21 -43 -37 39 c-35 37 -37 38 -32
12 6 -30 -8 -35 -17 -6 -8 26 -25 26 -25 0 0 -41 -17 -18 -23 30 -7 56 -48
117 -104 151 l-32 20 -31 -23 c-42 -31 -119 -30 -174 1 -34 19 -42 20 -75 10
-20 -6 -40 -15 -46 -19 -32 -25 -155 -17 -155 10 0 21 -36 19 -69 -4 -55 -39
-91 -90 -98 -141 -6 -43 -22 -63 -24 -27 0 14 -3 13 -16 -5 -21 -31 -31 -29
-25 5 4 26 4 26 -24 -10 -41 -52 -49 -47 -19 12 l26 51 -31 -16 c-35 -18 -40
-7 -9 21 l21 19 -48 5 -49 6 74 23 c63 19 82 31 130 79 31 32 64 62 73 67 12
7 18 24 19 55 1 25 7 51 12 57 6 9 4 15 -9 20 -11 4 -28 15 -38 25 -11 10 -25
18 -31 18 -6 0 -18 8 -26 18 -9 11 -25 25 -36 33 -26 18 -105 132 -131 189
-52 113 -66 265 -36 389 18 75 81 210 101 218 7 3 13 10 13 15 0 10 54 65 102
103 38 31 94 62 181 100 72 31 198 36 320 13z m-1219 -34 c67 -20 123 -38 125
-40 2 -2 -2 -17 -9 -35 -12 -27 -17 -30 -42 -25 -33 6 -35 0 -8 -22 18 -16 18
-20 5 -50 -10 -22 -19 -31 -27 -26 -69 39 -218 138 -218 145 0 14 39 89 47 89
3 0 60 -16 127 -36z m-115 -173 c12 -12 23 -15 33 -10 21 11 98 -12 112 -33
11 -19 -6 -124 -24 -142 -9 -9 -235 47 -254 64 -12 12 22 118 42 129 27 16 70
13 91 -8z m2486 -32 c8 -23 -8 -39 -38 -39 -22 0 -57 18 -57 29 0 6 47 23 82
30 4 0 10 -9 13 -20z m30 -126 c4 -21 7 -44 8 -52 1 -9 -39 -28 -123 -57
l-125 -43 130 1 130 0 3 -60 c2 -51 -1 -65 -18 -82 -22 -22 -94 -28 -105 -10
-5 8 -11 8 -19 1 -7 -6 -38 -13 -69 -17 l-57 -7 0 42 0 41 63 2 62 1 -65 6
-65 6 -1 41 c-1 22 -4 57 -8 76 -6 32 -4 36 19 42 14 4 23 11 20 15 -3 5 -14
7 -25 4 -20 -5 -23 -1 -34 49 -6 25 -4 27 36 31 24 2 87 4 140 5 l97 2 6 -37z
m-2425 -59 c22 -4 25 -9 22 -37 -4 -31 -5 -32 -50 -30 l-47 2 48 -11 c39 -8
47 -14 47 -33 0 -19 -8 -24 -52 -32 l-53 -10 48 -2 c47 -1 47 -1 47 -36 l0
-36 -77 7 c-153 13 -198 19 -195 27 1 4 2 25 2 47 l0 40 48 1 47 1 -45 14 -45
14 4 46 3 46 112 -6 c61 -4 122 -9 136 -12z m350 -79 c10 -31 15 -35 48 -35
l37 -1 -29 -23 c-26 -22 -28 -27 -18 -55 12 -35 4 -39 -33 -15 -22 14 -26 14
-50 -2 -32 -21 -37 -16 -26 23 8 27 6 32 -23 49 l-31 19 42 3 c39 3 43 5 49
38 8 43 19 43 34 -1z m1514 1 c6 -33 10 -35 49 -38 l42 -3 -31 -19 c-29 -17
-31 -22 -22 -48 13 -38 5 -45 -27 -24 -24 16 -28 16 -50 2 -37 -24 -45 -20
-33 15 10 28 8 33 -18 55 l-29 23 37 1 c33 0 38 4 48 35 15 44 26 44 34 1z
m-1850 -187 c3 -17 6 -46 6 -64 0 -38 -4 -40 -171 -51 -108 -7 -109 -7 -109
79 0 35 2 37 30 37 23 0 30 -4 30 -20 0 -14 7 -20 23 -20 18 0 23 5 23 23 -1
17 5 23 27 25 22 3 27 -1 27 -17 0 -16 6 -21 29 -21 24 0 28 3 24 24 -4 19 0
25 18 29 13 2 27 5 30 6 4 0 9 -13 13 -30z m2301 -34 c55 -8 106 -15 113 -15
13 0 17 -66 5 -73 -5 -2 -66 3 -138 12 -90 11 -130 20 -129 29 1 6 2 23 3 37
1 30 6 30 146 10z m-2276 -132 c6 -31 10 -57 8 -58 -9 -9 -254 -61 -259 -56
-4 4 -10 21 -14 38 l-6 31 101 23 c92 20 101 24 101 45 0 21 12 29 46 33 6 0
16 -25 23 -56z m2271 18 c128 -30 123 -25 100 -113 -9 -33 -13 -36 -37 -29
-20 5 -28 14 -28 31 0 32 -31 39 -40 10 -4 -14 -12 -19 -22 -16 -8 3 -19 6
-24 6 -5 0 -9 11 -9 25 0 14 -6 25 -12 25 -7 0 -30 5 -50 11 -38 10 -46 26
-32 63 8 21 18 20 154 -13z m-1805 -131 c6 -26 11 -30 41 -30 40 0 43 -12 9
-34 -21 -14 -23 -20 -15 -42 16 -42 12 -47 -22 -26 l-32 21 -29 -21 c-34 -25
-41 -20 -27 18 10 26 8 31 -14 51 -34 29 -33 33 8 33 30 0 36 4 46 35 13 40
25 38 35 -5z m1251 -30 c40 0 44 -11 9 -30 -28 -15 -29 -18 -15 -56 14 -36 6
-41 -26 -15 l-27 21 -33 -21 c-36 -22 -40 -17 -24 25 8 22 6 28 -15 42 -35 23
-31 34 10 34 19 0 35 4 35 9 0 5 5 22 11 38 l12 28 15 -37 c13 -33 19 -38 48
-38z m-749 -470 l26 0 -20 -22 c-16 -18 -19 -28 -12 -45 10 -26 8 -27 -24 -12
-18 8 -30 8 -47 -1 -27 -14 -35 -8 -22 17 8 14 6 23 -10 41 l-21 22 25 0 c20
0 29 7 38 33 l12 32 14 -32 c11 -26 20 -33 41 -33z m235 25 c2 -13 13 -22 32
-25 l28 -5 -21 -19 c-16 -15 -18 -23 -10 -38 14 -26 7 -31 -23 -17 -19 8 -31
8 -46 0 -29 -16 -32 -14 -23 12 7 17 4 27 -12 45 l-20 22 27 0 c21 0 29 7 38
31 11 31 23 29 30 -6z m-1002 -235 c11 -11 20 -31 20 -45 0 -22 -4 -25 -35
-25 -28 0 -35 4 -35 20 0 11 -4 20 -10 20 -25 0 -6 -39 34 -67 48 -34 65 -79
47 -126 -13 -34 -64 -51 -108 -36 -37 12 -53 34 -53 73 0 23 4 26 35 26 31 0
35 -3 35 -25 0 -14 5 -25 10 -25 6 0 10 11 10 25 0 14 -4 25 -9 25 -5 0 -26
15 -45 34 -66 62 -41 146 44 146 27 0 47 -7 60 -20z m140 -2 c0 -13 4 -34 8
-48 6 -21 8 -19 12 20 l5 45 48 3 47 3 0 -141 0 -141 -32 3 -33 3 2 55 1 55
-11 -58 c-10 -54 -12 -58 -36 -55 -23 3 -27 9 -32 48 l-6 45 -1 -47 c-2 -48
-2 -48 -37 -48 l-35 0 0 140 0 140 50 0 c45 0 50 -2 50 -22z m221 -20 l1 -43
12 40 c8 30 18 41 35 43 48 7 52 -2 30 -67 -22 -64 -23 -57 17 -193 4 -15 -1
-18 -34 -18 -38 0 -41 2 -50 38 l-10 37 -1 -37 c-1 -37 -2 -38 -41 -38 l-40 0
0 133 c0 74 3 137 7 140 3 4 21 7 40 7 32 0 33 -1 34 -42z m241 0 l13 -43 5
40 c5 37 8 40 35 40 l30 0 3 -137 3 -138 -35 0 c-33 0 -36 3 -50 48 l-15 47 0
-47 c-1 -46 -2 -48 -31 -48 l-30 0 0 140 0 140 30 0 c26 0 31 -5 42 -42z m189
-78 l5 -115 2 118 2 118 38 -3 37 -3 3 -105 c2 -117 -7 -147 -51 -168 -34 -16
-92 -1 -107 28 -6 10 -10 71 -10 135 l0 116 38 -3 37 -3 6 -115z m240 78 l1
-43 12 40 c11 37 15 40 50 43 29 3 37 0 34 -10 -39 -106 -40 -114 -19 -186 12
-38 21 -72 21 -76 0 -3 -18 -6 -39 -6 -39 0 -40 1 -49 43 l-10 42 -1 -43 -1
-43 -37 3 -38 3 -2 129 c-1 71 0 133 3 138 3 4 21 8 40 8 33 0 34 -1 35 -42z
m227 10 c-2 -25 -8 -33 -23 -33 -13 0 -21 -8 -23 -22 -3 -19 1 -23 22 -23 22
0 26 -4 26 -30 0 -25 -4 -30 -24 -30 -18 0 -23 -5 -23 -24 0 -19 5 -26 26 -28
20 -2 27 -9 29 -30 l3 -28 -65 0 -66 0 0 140 0 140 61 0 60 0 -3 -32z m154 15
c10 -9 18 -29 18 -45 0 -25 -3 -28 -35 -28 -29 0 -35 4 -36 23 -1 17 -2 18 -6
4 -3 -12 10 -32 41 -61 38 -35 46 -49 46 -78 0 -52 -27 -80 -78 -82 -49 -1
-76 22 -87 72 -7 32 -7 32 34 32 37 0 41 -2 41 -26 0 -14 4 -23 9 -20 17 11
-1 46 -36 67 -19 12 -39 33 -44 48 -13 34 -3 88 19 100 27 16 93 13 114 -6z
m163 -18 c0 -25 -3 -30 -22 -27 -19 3 -23 -2 -23 -22 0 -19 5 -26 20 -26 11 0
21 -4 21 -10 5 -38 2 -45 -18 -48 -35 -5 -32 -52 2 -52 21 0 25 -5 25 -30 l0
-30 -65 0 -65 0 0 133 c0 74 3 137 7 141 4 4 32 6 63 4 54 -3 55 -4 55 -33z
m155 15 c11 -11 20 -31 20 -45 0 -22 -4 -25 -35 -25 -28 0 -35 4 -35 20 0 11
-4 20 -10 20 -25 0 -6 -39 34 -67 48 -34 65 -79 47 -126 -13 -34 -64 -51 -108
-36 -37 12 -53 34 -53 73 0 23 4 26 35 26 31 0 35 -3 35 -25 0 -14 5 -25 10
-25 6 0 10 11 10 25 0 14 -4 25 -9 25 -5 0 -26 15 -45 34 -66 62 -41 146 44
146 27 0 47 -7 60 -20z m118 -122 l3 -138 -41 0 -40 0 0 141 0 140 38 -3 37
-3 3 -137z m-2048 -254 l0 -27 21 27 c11 14 30 26 42 26 21 0 21 -1 -5 -27
l-27 -26 21 -30 21 -29 22 53 c12 30 28 54 36 54 8 0 23 -23 34 -52 11 -29 22
-53 25 -53 3 0 4 25 3 55 l-2 55 38 0 c21 0 43 -6 48 -12 13 -18 14 -90 1
-106 -17 -20 -107 -13 -119 10 -13 24 -49 23 -56 -2 -8 -31 -49 -26 -70 10 -9
17 -21 30 -25 30 -4 0 -8 -13 -8 -30 0 -20 -5 -30 -15 -30 -12 0 -15 14 -15
65 0 51 3 65 15 65 10 0 15 -10 15 -26z m330 -17 c0 -46 14 -69 36 -60 9 3 14
22 14 54 0 37 4 49 15 49 21 0 21 -93 -1 -114 -18 -19 -55 -21 -72 -4 -14 14
-16 118 -2 118 6 0 10 -19 10 -43z m188 31 c26 -26 -1 -68 -44 -68 -19 0 -24
-5 -24 -25 0 -14 -4 -25 -10 -25 -6 0 -10 28 -10 65 l0 65 38 0 c21 0 43 -5
50 -12z m92 -48 c13 -34 20 -63 17 -66 -9 -9 -27 6 -27 22 0 22 -48 18 -55 -6
-7 -23 -25 -27 -25 -6 0 7 6 29 14 47 7 19 16 42 19 52 12 34 35 17 57 -43z
m110 50 c0 -5 -9 -10 -20 -10 -18 0 -20 -7 -20 -55 0 -30 -4 -55 -10 -55 -10
0 -14 30 -10 83 1 21 -3 27 -19 27 -12 0 -21 5 -21 10 0 6 23 10 50 10 28 0
50 -4 50 -10z m100 0 c0 -5 -16 -10 -35 -10 -24 0 -35 -5 -35 -15 0 -10 11
-15 35 -15 19 0 35 -4 35 -10 0 -5 -16 -10 -35 -10 -49 0 -48 -28 2 -32 59 -5
54 -28 -6 -28 l-51 0 0 65 0 65 45 0 c25 0 45 -4 45 -10z m72 -33 l28 -42 0
43 c0 23 5 42 10 42 6 0 10 -28 10 -65 0 -36 -4 -65 -10 -65 -5 0 -22 19 -37
42 l-28 42 -3 -42 c-5 -67 -22 -49 -22 23 0 78 13 84 52 22z m206 31 c26 -26
-1 -68 -44 -68 -19 0 -24 -5 -24 -25 0 -14 -4 -25 -10 -25 -6 0 -10 28 -10 65
l0 65 38 0 c21 0 43 -5 50 -12z m112 2 c0 -5 -16 -10 -35 -10 -24 0 -35 -5
-35 -15 0 -10 11 -15 35 -15 19 0 35 -4 35 -10 0 -5 -16 -10 -35 -10 -50 0
-48 -28 3 -32 53 -4 46 -22 -10 -26 l-48 -3 0 65 0 66 45 0 c25 0 45 -4 45
-10z m40 -17 l0 -27 28 27 c36 35 65 37 33 3 -23 -24 -23 -25 -5 -55 10 -16
21 -28 25 -25 4 2 15 27 24 55 22 65 41 62 69 -11 l21 -55 3 58 c2 42 7 57 17
57 11 0 15 -13 15 -49 0 -47 2 -50 28 -53 46 -5 25 -23 -32 -26 -47 -3 -55 0
-61 18 -9 27 -51 27 -58 0 -8 -30 -42 -25 -67 10 -24 34 -40 31 -40 -6 0 -13
-4 -24 -10 -24 -6 0 -10 28 -10 65 0 37 4 65 10 65 6 0 10 -12 10 -27z m394
11 c36 -36 8 -114 -41 -114 -52 0 -82 72 -46 112 20 22 66 24 87 2z m81 -21
l25 -38 0 38 c0 26 4 37 15 37 12 0 15 -14 15 -65 0 -36 -4 -65 -10 -65 -5 0
-23 19 -40 42 l-30 41 0 -42 c0 -61 -23 -48 -27 15 -5 85 11 96 52 37z m173
25 c16 -16 15 -28 -3 -28 -8 0 -15 5 -15 11 0 6 -12 9 -27 7 -23 -2 -29 -8
-31 -35 -3 -35 23 -58 52 -47 23 9 20 24 -4 24 -11 0 -20 5 -20 10 0 6 14 10
30 10 25 0 30 -4 30 -25 0 -44 -64 -61 -100 -25 -41 41 -13 110 44 110 17 0
37 -5 44 -12z m112 -48 c13 -34 20 -63 17 -66 -9 -9 -27 6 -27 22 0 22 -48 18
-55 -6 -3 -11 -13 -20 -21 -20 -17 0 -17 -1 2 46 9 22 20 49 25 62 15 38 35
25 59 -38z m77 18 l28 -42 3 42 c5 67 22 49 22 -23 0 -36 -4 -65 -10 -65 -5 0
-22 19 -37 42 l-28 42 -3 -42 c-5 -67 -22 -49 -22 23 0 36 4 65 10 65 5 0 22
-19 37 -42z"/>
<path d="M1846 3165 c11 -94 25 -120 18 -35 -3 41 -10 79 -15 85 -6 6 -7 -12
-3 -50z"/>
<path d="M2176 3183 c-13 -90 -16 -138 -7 -117 11 24 26 154 18 154 -3 0 -8
-17 -11 -37z"/>
<path d="M2655 2954 c-9 -14 -14 -28 -12 -31 3 -3 13 9 22 26 19 38 14 41 -10
5z"/>
<path d="M1306 2995 c9 -14 19 -24 21 -21 7 7 -16 46 -28 46 -5 0 -2 -11 7
-25z"/>
<path d="M1119 2783 c12 -23 29 -38 37 -31 2 3 -8 15 -22 29 -25 23 -26 23
-15 2z"/>
<path d="M3118 2393 c-10 -2 -18 -9 -18 -14 0 -6 10 -5 23 2 37 20 36 23 -5
12z"/>
<path d="M1040 2590 c33 -26 48 -26 25 0 -10 11 -25 20 -34 20 -12 0 -9 -6 9
-20z"/>
<path d="M1974 2528 l-19 -23 23 19 c21 18 27 26 19 26 -2 0 -12 -10 -23 -22z"/>
<path d="M1935 2529 c-4 -6 -5 -12 -2 -15 2 -3 7 2 10 11 7 17 1 20 -8 4z"/>
<path d="M2009 2523 c-13 -16 -12 -17 4 -4 9 7 17 15 17 17 0 8 -8 3 -21 -13z"/>
<path d="M2049 2523 c-13 -16 -12 -17 4 -4 9 7 17 15 17 17 0 8 -8 3 -21 -13z"/>
<path d="M2089 2523 c-13 -16 -12 -17 4 -4 9 7 17 15 17 17 0 8 -8 3 -21 -13z"/>
<path d="M1897 2523 c-4 -3 -7 -11 -7 -17 0 -6 5 -5 12 2 6 6 9 14 7 17 -3 3
-9 2 -12 -2z"/>
<path d="M2125 2520 c-3 -5 -2 -10 4 -10 5 0 13 5 16 10 3 6 2 10 -4 10 -5 0
-13 -4 -16 -10z"/>
<path d="M1857 2513 c-4 -3 -7 -11 -7 -17 0 -6 5 -5 12 2 6 6 9 14 7 17 -3 3
-9 2 -12 -2z"/>
<path d="M2165 2510 c-3 -5 -2 -10 4 -10 5 0 13 5 16 10 3 6 2 10 -4 10 -5 0
-13 -4 -16 -10z"/>
<path d="M1817 2491 c-4 -17 -3 -21 5 -13 5 5 8 16 6 23 -3 8 -7 3 -11 -10z"/>
<path d="M2204 2494 c-18 -14 -18 -15 4 -4 12 6 22 13 22 15 0 8 -5 6 -26 -11z"/>
<path d="M1783 2485 c-3 -9 -3 -18 -1 -21 3 -3 8 4 11 16 6 23 -1 27 -10 5z"/>
<path d="M1933 2489 c-49 -6 -194 -65 -201 -81 -2 -5 -9 -8 -15 -8 -23 0 -143
-135 -169 -192 -77 -162 -81 -337 -11 -480 50 -102 137 -195 221 -235 32 -15
35 -15 63 6 24 18 44 23 97 23 37 0 85 0 107 1 171 1 171 1 205 -25 l33 -26
51 36 c48 34 103 86 136 129 105 136 134 350 71 515 -5 13 -10 28 -11 33 -3
12 -73 113 -97 140 -53 59 -166 128 -253 154 -43 13 -159 18 -227 10z m180
-64 c93 -19 162 -56 229 -122 216 -212 150 -585 -126 -714 -166 -78 -359 -44
-497 87 -281 269 -93 747 301 763 14 0 55 -6 93 -14z"/>
<path d="M1935 2401 l-30 -7 34 -7 c42 -9 157 -7 191 2 23 7 21 8 -15 14 -48
8 -139 7 -180 -2z"/>
<path d="M2181 2371 c-20 -13 36 -51 73 -51 30 1 30 1 11 16 -37 28 -71 43
-84 35z"/>
<path d="M1800 2343 l-44 -27 28 -9 c15 -5 28 -7 29 -5 1 1 15 18 31 36 37 40
18 42 -44 5z"/>
<path d="M1879 2333 c-13 -14 -18 -23 -12 -19 7 4 22 2 33 -4 17 -9 22 -7 30
15 13 34 13 35 -8 35 -10 0 -29 -12 -43 -27z"/>
<path d="M1969 2343 c-13 -16 -12 -17 4 -4 9 7 17 15 17 17 0 8 -8 3 -21 -13z"/>
<path d="M2106 2345 c4 -9 19 -15 37 -15 29 0 30 1 11 15 -26 19 -55 20 -48 0z"/>
<path d="M2293 2289 c-27 -10 -28 -20 -6 -77 15 -40 18 -43 47 -37 70 14 69
12 34 61 -42 58 -49 63 -75 53z"/>
<path d="M1748 2283 c7 -3 16 -2 19 1 4 3 -2 6 -13 5 -11 0 -14 -3 -6 -6z"/>
<path d="M2207 2232 c-17 -3 -47 -50 -47 -73 0 -8 16 -10 56 -6 31 3 58 8 61
10 7 8 -25 64 -39 69 -7 2 -21 3 -31 0z"/>
<path d="M2362 2156 c-24 -6 -43 -14 -43 -19 1 -47 16 -107 28 -111 8 -3 11
-10 8 -16 -4 -6 13 -10 44 -10 57 0 57 -1 38 80 -20 84 -24 88 -75 76z"/>
<path d="M2223 2128 l-53 -10 0 -59 0 -59 58 1 c38 1 49 3 33 8 -38 10 -36 29
3 37 28 5 36 11 36 28 0 29 -11 66 -19 65 -3 -1 -30 -6 -58 -11z m-11 -88 c-2
-17 -10 -30 -18 -30 -9 0 -14 11 -14 30 0 22 5 30 18 30 15 0 18 -6 14 -30z"/>
<path d="M1987 2080 c-6 -27 -9 -29 -32 -20 -45 17 -55 13 -55 -25 0 -34 1
-35 42 -35 33 0 39 3 30 12 -20 20 -14 28 13 18 24 -9 25 -8 25 35 0 51 -14
60 -23 15z"/>
<path d="M2040 2055 l0 -55 33 0 c19 0 27 3 20 8 -16 10 11 52 33 52 8 0 14
10 14 25 0 23 -3 25 -50 25 l-50 0 0 -55z"/>
<path d="M1831 2071 c-6 -4 -15 -22 -20 -39 -9 -32 -9 -32 25 -32 27 0 34 4
34 19 0 11 3 26 6 34 6 16 -27 29 -45 18z"/>
<path d="M1610 1953 c0 -9 7 -43 16 -75 16 -55 18 -57 43 -51 42 10 42 12 6
58 -18 25 -36 54 -40 65 -8 24 -25 27 -25 3z"/>
<path d="M1796 1954 c-3 -9 -6 -36 -6 -61 0 -37 3 -44 16 -39 9 3 29 6 45 6
29 0 29 1 29 55 l0 55 -39 0 c-26 0 -41 -5 -45 -16z"/>
<path d="M1900 1958 c0 -7 3 -30 6 -50 7 -38 7 -38 55 -38 l49 0 0 50 0 50
-55 0 c-37 0 -55 -4 -55 -12z"/>
<path d="M2075 1960 c6 -9 -8 -14 -27 -11 -5 0 -8 -17 -8 -39 l0 -40 50 0 50
0 0 35 c0 25 -4 35 -15 35 -9 0 -18 7 -21 15 -4 8 -13 15 -21 15 -8 0 -11 -4
-8 -10z"/>
<path d="M2235 1960 c6 -10 -5 -13 -41 -11 -18 2 -22 -5 -27 -41 -3 -23 -4
-44 -2 -46 2 -2 17 4 35 13 30 15 33 15 51 -1 26 -23 37 -10 45 49 l7 47 -37
0 c-22 0 -35 -4 -31 -10z"/>
<path d="M2321 1909 c-7 -34 -9 -65 -4 -69 4 -4 27 -12 50 -17 41 -10 42 -10
53 21 6 17 15 52 19 79 l8 47 -57 0 -57 0 -12 -61z"/>
<path d="M1959 1843 l-47 -4 12 -52 c11 -50 12 -52 49 -55 l37 -3 0 60 c0 34
-1 60 -2 59 -2 -1 -24 -3 -49 -5z"/>
<path d="M2040 1788 l0 -58 34 0 c31 0 34 3 45 44 16 64 16 64 -34 68 l-45 3
0 -57z"/>
<path d="M1829 1833 c-35 -5 -44 -38 -21 -78 15 -25 25 -31 61 -33 41 -3 43
-2 37 20 -3 13 -9 40 -12 61 -7 38 -8 39 -65 30z"/>
<path d="M1678 1803 c-25 -6 -23 -14 18 -68 33 -42 39 -46 67 -41 17 3 33 8
35 11 3 3 -6 26 -21 53 -26 48 -50 59 -99 45z"/>
<path d="M2293 1793 c-4 -10 -17 -31 -30 -46 -31 -38 -29 -44 15 -52 35 -6 39
-4 75 35 20 24 37 46 37 51 0 7 -62 29 -83 29 -4 0 -11 -8 -14 -17z"/>
<path d="M2163 1780 c-30 -12 -33 -60 -4 -60 11 0 26 -3 34 -6 20 -7 50 37 41
60 -7 17 -36 20 -71 6z"/>
<path d="M1978 1703 c-33 -5 -32 -3 -11 -48 24 -50 43 -46 43 10 0 25 -1 44
-2 44 -2 -1 -15 -4 -30 -6z"/>
<path d="M2040 1666 c0 -25 4 -46 8 -46 5 0 18 18 31 40 18 32 19 40 7 40 -8
0 -21 3 -30 6 -13 5 -16 -2 -16 -40z"/>
<path d="M1872 1692 c-9 -6 -2 -18 25 -43 50 -46 69 -41 41 12 -19 38 -39 47
-66 31z"/>
<path d="M2107 1660 c-19 -49 -8 -51 46 -8 40 32 40 33 16 39 -42 12 -46 10
-62 -31z"/>
<path d="M1776 1673 c-27 -7 60 -63 98 -63 l29 0 -39 35 c-38 34 -50 37 -88
28z"/>
<path d="M2180 1645 l-34 -35 27 0 c28 0 101 32 111 49 6 9 -25 21 -55 21 -8
0 -30 -16 -49 -35z"/>
<path d="M2240 2480 c-8 -5 -10 -10 -5 -10 6 0 17 5 25 10 8 5 11 10 5 10 -5
0 -17 -5 -25 -10z"/>
<path d="M1747 2461 c-4 -17 -3 -21 5 -13 5 5 8 16 6 23 -3 8 -7 3 -11 -10z"/>
<path d="M2275 2460 c-3 -6 1 -7 9 -4 18 7 21 14 7 14 -6 0 -13 -4 -16 -10z"/>
<path d="M1712 2440 c0 -14 2 -19 5 -12 2 6 2 18 0 25 -3 6 -5 1 -5 -13z"/>
<path d="M2318 2443 c7 -3 16 -2 19 1 4 3 -2 6 -13 5 -11 0 -14 -3 -6 -6z"/>
<path d="M1682 2420 c0 -14 2 -19 5 -12 2 6 2 18 0 25 -3 6 -5 1 -5 -13z"/>
<path d="M2340 2420 c-8 -5 -10 -10 -5 -10 6 0 17 5 25 10 8 5 11 10 5 10 -5
0 -17 -5 -25 -10z"/>
<path d="M1651 2394 c0 -11 3 -14 6 -6 3 7 2 16 -1 19 -3 4 -6 -2 -5 -13z"/>
<path d="M2378 2393 c7 -3 16 -2 19 1 4 3 -2 6 -13 5 -11 0 -14 -3 -6 -6z"/>
<path d="M1622 2370 c0 -14 2 -19 5 -12 2 6 2 18 0 25 -3 6 -5 1 -5 -13z"/>
<path d="M2400 2370 c0 -5 7 -7 15 -4 8 4 15 8 15 10 0 2 -7 4 -15 4 -8 0 -15
-4 -15 -10z"/>
<path d="M1592 2340 c0 -14 2 -19 5 -12 2 6 2 18 0 25 -3 6 -5 1 -5 -13z"/>
<path d="M2428 2343 c6 -2 18 -2 25 0 6 3 1 5 -13 5 -14 0 -19 -2 -12 -5z"/>
<path d="M1560 2316 c0 -8 4 -17 9 -20 5 -4 7 3 4 14 -6 23 -13 26 -13 6z"/>
<path d="M2458 2313 c7 -3 16 -2 19 1 4 3 -2 6 -13 5 -11 0 -14 -3 -6 -6z"/>
<path d="M1541 2284 c0 -11 3 -14 6 -6 3 7 2 16 -1 19 -3 4 -6 -2 -5 -13z"/>
<path d="M2488 2273 c7 -3 16 -2 19 1 4 3 -2 6 -13 5 -11 0 -14 -3 -6 -6z"/>
<path d="M2508 2243 c7 -3 16 -2 19 1 4 3 -2 6 -13 5 -11 0 -14 -3 -6 -6z"/>
<path d="M1500 2211 c0 -6 4 -13 10 -16 6 -3 7 1 4 9 -7 18 -14 21 -14 7z"/>
<path d="M2510 2216 c0 -2 9 -6 20 -9 11 -3 18 -1 14 4 -5 9 -34 13 -34 5z"/>
<path d="M1480 2185 c0 -5 5 -17 10 -25 5 -8 10 -10 10 -5 0 6 -5 17 -10 25
-5 8 -10 11 -10 5z"/>
<path d="M2538 2173 c7 -3 16 -2 19 1 4 3 -2 6 -13 5 -11 0 -14 -3 -6 -6z"/>
<path d="M1470 2141 c0 -6 4 -13 10 -16 6 -3 7 1 4 9 -7 18 -14 21 -14 7z"/>
<path d="M2548 2138 c5 -5 16 -8 23 -6 8 3 3 7 -10 11 -17 4 -21 3 -13 -5z"/>
<path d="M2565 2100 c3 -5 11 -10 16 -10 6 0 7 5 4 10 -3 6 -11 10 -16 10 -6
0 -7 -4 -4 -10z"/>
<path d="M2560 2076 c0 -2 8 -10 18 -17 15 -13 16 -12 3 4 -13 16 -21 21 -21
13z"/>
<path d="M1450 2061 c0 -5 5 -13 10 -16 6 -3 10 -2 10 4 0 5 -4 13 -10 16 -5
3 -10 2 -10 -4z"/>
<path d="M1440 2026 c0 -2 8 -10 18 -17 15 -13 16 -12 3 4 -13 16 -21 21 -21
13z"/>
<path d="M2570 2026 c0 -2 7 -7 16 -10 8 -3 12 -2 9 4 -6 10 -25 14 -25 6z"/>
<path d="M2585 1980 c10 -11 20 -20 23 -20 3 0 -3 9 -13 20 -10 11 -20 20 -23
20 -3 0 3 -9 13 -20z"/>
<path d="M1440 1981 c0 -5 7 -12 16 -15 14 -5 15 -4 4 9 -14 17 -20 19 -20 6z"/>
<path d="M1440 1941 c0 -5 7 -12 16 -15 14 -5 15 -4 4 9 -14 17 -20 19 -20 6z"/>
<path d="M2580 1946 c0 -2 8 -10 18 -17 15 -13 16 -12 3 4 -13 16 -21 21 -21
13z"/>
<path d="M2570 1916 c0 -2 8 -10 18 -17 15 -13 16 -12 3 4 -13 16 -21 21 -21
13z"/>
<path d="M1440 1906 c0 -2 7 -9 15 -16 9 -7 15 -8 15 -2 0 5 -7 12 -15 16 -8
3 -15 4 -15 2z"/>
<path d="M2570 1871 c0 -5 7 -15 17 -22 15 -13 15 -12 4 9 -12 23 -21 28 -21
13z"/>
<path d="M1440 1865 c0 -2 10 -10 23 -16 20 -11 21 -11 8 4 -13 16 -31 23 -31
12z"/>
<path d="M1457 1819 c7 -7 15 -10 18 -7 3 3 -2 9 -12 12 -14 6 -15 5 -6 -5z"/>
<path d="M2556 1787 c3 -10 9 -15 12 -12 3 3 0 11 -7 18 -10 9 -11 8 -5 -6z"/>
<path d="M1470 1780 c8 -5 20 -10 25 -10 6 0 3 5 -5 10 -8 5 -19 10 -25 10 -5
0 -3 -5 5 -10z"/>
<path d="M2540 1765 c0 -5 5 -17 10 -25 5 -8 10 -10 10 -5 0 6 -5 17 -10 25
-5 8 -10 11 -10 5z"/>
<path d="M1480 1746 c0 -2 7 -7 16 -10 8 -3 12 -2 9 4 -6 10 -25 14 -25 6z"/>
<path d="M1508 1703 c7 -3 16 -2 19 1 4 3 -2 6 -13 5 -11 0 -14 -3 -6 -6z"/>
<path d="M2510 1681 c0 -6 4 -13 10 -16 6 -3 7 1 4 9 -7 18 -14 21 -14 7z"/>
<path d="M2491 1644 c0 -11 3 -14 6 -6 3 7 2 16 -1 19 -3 4 -6 -2 -5 -13z"/>
<path d="M1538 1633 c6 -2 18 -2 25 0 6 3 1 5 -13 5 -14 0 -19 -2 -12 -5z"/>
<path d="M2471 1604 c0 -11 3 -14 6 -6 3 7 2 16 -1 19 -3 4 -6 -2 -5 -13z"/>
<path d="M1558 1603 c6 -2 18 -2 25 0 6 3 1 5 -13 5 -14 0 -19 -2 -12 -5z"/>
<path d="M2442 1580 c0 -14 2 -19 5 -12 2 6 2 18 0 25 -3 6 -5 1 -5 -13z"/>
<path d="M1588 1573 c6 -2 18 -2 25 0 6 3 1 5 -13 5 -14 0 -19 -2 -12 -5z"/>
<path d="M2410 1561 c0 -6 4 -13 10 -16 6 -3 7 1 4 9 -7 18 -14 21 -14 7z"/>
<path d="M1613 1543 c9 -2 23 -2 30 0 6 3 -1 5 -18 5 -16 0 -22 -2 -12 -5z"/>
<path d="M1650 1520 c-8 -5 -10 -10 -5 -10 6 0 17 5 25 10 8 5 11 10 5 10 -5
0 -17 -5 -25 -10z"/>
<path d="M1917 1503 c-4 -3 -7 -11 -7 -17 0 -6 5 -5 12 2 6 6 9 14 7 17 -3 3
-9 2 -12 -2z"/>
<path d="M1949 1493 c-13 -16 -12 -17 4 -4 9 7 17 15 17 17 0 8 -8 3 -21 -13z"/>
<path d="M2080 1506 c0 -2 8 -10 18 -17 15 -13 16 -12 3 4 -13 16 -21 21 -21
13z"/>
<path d="M2120 1506 c0 -2 8 -10 18 -17 15 -13 16 -12 3 4 -13 16 -21 21 -21
13z"/>
<path d="M2351 1494 c0 -11 3 -14 6 -6 3 7 2 16 -1 19 -3 4 -6 -2 -5 -13z"/>
<path d="M1668 1493 c6 -2 18 -2 25 0 6 3 1 5 -13 5 -14 0 -19 -2 -12 -5z"/>
<path d="M2165 1490 c3 -5 8 -10 11 -10 2 0 4 5 4 10 0 6 -5 10 -11 10 -5 0
-7 -4 -4 -10z"/>
<path d="M2321 1474 c0 -11 3 -14 6 -6 3 7 2 16 -1 19 -3 4 -6 -2 -5 -13z"/>
<path d="M1718 1473 c7 -3 16 -2 19 1 4 3 -2 6 -13 5 -11 0 -14 -3 -6 -6z"/>
<path d="M2286 1464 c-4 -9 -4 -19 -1 -22 2 -3 7 3 11 12 4 9 4 19 1 22 -2 3
-7 -3 -11 -12z"/>
<path d="M2100 1435 c-7 -8 -8 -15 -2 -15 5 0 15 7 22 15 7 8 8 15 2 15 -5 0
-15 -7 -22 -15z"/>
<path d="M1849 1423 c-13 -15 -12 -15 9 -4 23 12 28 21 13 21 -5 0 -15 -7 -22
-17z"/>
<path d="M2007 1426 c-7 -19 -163 -40 -182 -25 -18 14 -33 -5 -28 -34 5 -26 8
-27 67 -27 47 0 75 -6 111 -25 41 -20 52 -22 65 -12 31 26 73 37 140 37 39 0
70 4 70 9 0 5 3 17 6 26 5 13 0 15 -32 14 -50 -3 -137 9 -144 20 -3 4 -19 13
-37 19 -24 8 -33 8 -36 -2z"/>
<path d="M2137 1433 c-4 -3 -7 -11 -7 -17 0 -6 5 -5 12 2 6 6 9 14 7 17 -3 3
-9 2 -12 -2z"/>
<path d="M2170 1425 c-7 -9 -8 -15 -2 -15 5 0 12 7 16 15 3 8 4 15 2 15 -2 0
-9 -7 -16 -15z"/>
<path d="M2206 1425 c-9 -26 -7 -32 5 -12 6 10 9 21 6 23 -2 3 -7 -2 -11 -11z"/>
<path d="M1875 1270 c-17 -6 -17 -7 -1 -13 26 -10 74 -8 81 3 3 6 0 10 -7 11
-7 0 -22 2 -34 3 -11 1 -29 0 -39 -4z"/>
<path d="M2115 1270 l-40 -6 37 -8 c20 -4 49 -4 65 1 l28 10 -25 4 c-14 2 -43
2 -65 -1z"/>
<path d="M2399 1173 c-13 -16 -12 -17 4 -4 16 13 21 21 13 21 -2 0 -10 -8 -17
-17z"/>
<path d="M1568 1138 c-5 -13 20 -41 40 -45 19 -5 14 12 -12 36 -17 16 -25 18
-28 9z"/>
<path d="M2452 1127 c-26 -27 -27 -34 -7 -34 8 0 13 3 10 6 -3 3 3 10 14 16
13 6 17 15 12 23 -5 9 -13 6 -29 -11z"/>
<path d="M896 2445 c10 -8 24 -14 29 -14 6 0 1 6 -9 14 -11 8 -24 15 -30 15
-5 0 -1 -7 10 -15z"/>
<path d="M754 2281 c8 -12 46 -21 46 -11 0 8 -24 20 -41 20 -6 0 -8 -4 -5 -9z"/>
<path d="M875 2245 c17 -7 32 -11 35 -9 7 8 -24 24 -45 23 -15 0 -13 -4 10
-14z"/>
<path d="M3170 2141 c0 -4 11 -6 25 -3 14 2 25 6 25 8 0 2 -11 4 -25 4 -14 0
-25 -4 -25 -9z"/>
<path d="M3270 1950 c-12 -8 -11 -10 7 -10 12 0 25 5 28 10 8 13 -15 13 -35 0z"/>
<path d="M1170 485 c0 -8 9 -15 20 -15 11 0 20 7 20 15 0 8 -9 15 -20 15 -11
0 -20 -7 -20 -15z"/>
<path d="M1070 465 c0 -8 5 -15 10 -15 6 0 10 7 10 15 0 8 -4 15 -10 15 -5 0
-10 -7 -10 -15z"/>
<path d="M1170 436 c0 -11 9 -16 26 -16 31 0 28 23 -4 28 -15 2 -22 -2 -22
-12z"/>
<path d="M1400 485 c0 -9 9 -15 25 -15 16 0 25 6 25 15 0 9 -9 15 -25 15 -16
0 -25 -6 -25 -15z"/>
<path d="M1515 470 c-8 -13 -1 -24 14 -19 6 3 7 10 2 18 -6 10 -10 10 -16 1z"/>
<path d="M1980 481 c0 -14 6 -17 25 -13 14 2 25 11 25 18 0 8 -10 14 -25 14
-18 0 -25 -5 -25 -19z"/>
<path d="M2327 471 c-3 -14 0 -21 9 -21 16 0 18 9 5 28 -6 10 -10 9 -14 -7z"/>
<path d="M2527 493 c-12 -12 -7 -60 7 -72 31 -26 73 31 46 64 -13 16 -42 20
-53 8z"/>
<path d="M2916 471 c-4 -7 -5 -15 -2 -18 9 -9 19 4 14 18 -4 11 -6 11 -12 0z"/>
</g>
</svg>
